Exact Audio Copy V0.99 prebeta 1 from 25. May 2007

EAC 抓取日志文件从5. 十一月 2010, 19:56

施鸿鄂 / 20世纪中华歌坛名人百集珍藏版

使用驱动器  ：BENQ    DVD-ROM 16X   Adapter: 0  ID: 1

读取模式     : 保护
使用精确流   : 是
废除音频缓冲 : 是
使用 C2 指针 : 否

读取偏移校正                   : 738
读取 Lead-In 和 Lead-Out       : 否
用静音填充抓取中丢失偏移的采样 : 是
去除首尾静音块                 : 否
已用接口                       : Win NT 及 2000 本地 Win32 接口

所用输出格式 : 内部 WAV 函数
样本格式     : 44.100 Hz;16 Bit;立体声


被抓轨 CD 的 TOC

     音轨 |   开始   |   长度   | 起始扇区 | 结尾扇区 
    --------------------------------------------------
       1  |  0:00.00 |  3:36.32 |       0  |   16231  
       2  |  3:36.32 |  3:03.48 |   16232  |   30004  
       3  |  6:40.05 |  4:08.40 |   30005  |   48644  
       4  | 10:48.45 |  1:57.65 |   48645  |   57484  
       5  | 12:46.35 |  2:54.12 |   57485  |   70546  
       6  | 15:40.47 |  2:59.55 |   70547  |   84026  
       7  | 18:40.27 |  2:48.03 |   84027  |   96629  
       8  | 21:28.30 |  5:04.67 |   96630  |  119496  
       9  | 26:33.22 |  2:19.25 |  119497  |  129946  
      10  | 28:52.47 |  3:34.13 |  129947  |  146009  
      11  | 32:26.60 |  2:22.22 |  146010  |  156681  
      12  | 34:49.07 |  2:23.23 |  156682  |  167429  
      13  | 37:12.30 |  2:46.17 |  167430  |  179896  
      14  | 39:58.47 |  3:21.18 |  179897  |  194989  
      15  | 43:19.65 |  2:40.22 |  194990  |  207011  
      16  | 46:00.12 |  2:49.25 |  207012  |  219711  
      17  | 48:49.37 |  2:48.40 |  219712  |  232351  
      18  | 51:38.02 |  2:57.73 |  232352  |  245699  


范围状态及错误

已选择范围

     文件名 E:\文件夹\20世纪中华歌坛名人百集珍藏版-施鸿鄂[lwg188原创]\施鸿鄂 - 20世纪中华歌坛名人百集珍藏版.wav

     峰值电平 98.0 %
     范围质量 100.0 %
     复制 CRC A43C0784
     复制成功

没有错误发生

状态报告结尾
